<svg xmlns="http://www.w3.org/2000/svg" xmlns:xlink="http://www.w3.org/1999/xlink" viewBox="2864.894 -1689.447 169.318 271.866">
  <defs>
    <style>
      .cls-1 {
        fill: none;
      }

      .cls-2 {
        opacity: 0.88;
      }

      .cls-3 {
        fill: #ffda57;
      }

      .cls-4 {
        fill: #fafafa;
      }

      .cls-5 {
        fill: #fff;
      }

      .cls-6 {
        clip-path: url(#clip-path);
      }
    </style>
    <clipPath id="clip-path">
      <path id="Path_295" data-name="Path 295" class="cls-1" d="M0-223.2H169.318V48.668H0Z" transform="translate(0 223.197)"/>
    </clipPath>
  </defs>
  <g id="Group_213" data-name="Group 213" class="cls-2" transform="translate(2864.894 -1689.446)">
    <path id="Path_284" data-name="Path 284" class="cls-3" d="M0-208.583H67.9V-223.2H0Z" transform="translate(0 223.197)"/>
    <path id="Path_285" data-name="Path 285" class="cls-4" d="M0-186.341H14.211v-19.691H0Z" transform="translate(0 226.94)"/>
    <path id="Path_286" data-name="Path 286" class="cls-4" d="M0-170.084H67.9V-184.7H0Z" transform="translate(0 231.592)"/>
    <g id="Group_207" data-name="Group 207" transform="translate(0.002 74.006)">
      <path id="Path_287" data-name="Path 287" class="cls-5" d="M8.692,0-39.865,59.883h67.9V45.269H-7.692L28.08,0ZM-39.865,0V14.617h28.209L.123,0Z" transform="translate(39.865)"/>
    </g>
    <path id="Path_288" data-name="Path 288" class="cls-5" d="M0-86.993H67.9v-14.615H0Zm0-14.614M0-59.282v17.964L46.283-75.525,33.9-84.353Zm41.105-2.134L67.9-42.028V-59.894L53.286-70.449Z" transform="translate(0 249.709)"/>
    <g id="Group_208" data-name="Group 208" transform="translate(0.766 227.391)">
      <path id="Path_289" data-name="Path 289" class="cls-5" d="M0,7.961H15.667L30.652-21.232,22.868-36.511Z" transform="translate(0 36.511)"/>
    </g>
    <g id="Group_212" data-name="Group 212" class="cls-6" transform="translate(0 0)">
      <g id="Group_209" data-name="Group 209" transform="translate(94.964 248.897)">
        <path id="Path_290" data-name="Path 290" class="cls-5" d="M1.367.4a40.972,40.972,0,0,1-7.638.778l7.1,19.949h14.79L7.547-1.839A24.7,24.7,0,0,1,1.367.4" transform="translate(6.271 1.839)"/>
      </g>
      <g id="Group_210" data-name="Group 210" transform="translate(27.818 203.843)">
        <path id="Path_291" data-name="Path 291" class="cls-5" d="M7.177,11.165-25.033-51.2l-7.882,15.182L-18.22-7.705h-5.547l-6.91,13.621h19.463l5.547,10.9H21.191v-65.1H7.177Z" transform="translate(32.915 51.204)"/>
      </g>
      <g id="Group_211" data-name="Group 211" transform="translate(89.513 206.761)">
        <path id="Path_292" data-name="Path 292" class="cls-5" d="M3.589,6.324a19.492,19.492,0,0,0,5.6-6.957,19.824,19.824,0,0,0,1.993-8.71A19.041,19.041,0,0,0,9.427-17.42a20.356,20.356,0,0,0-4.864-6.616A22.877,22.877,0,0,0,1.4-26.374a15.209,15.209,0,0,0-3.6-1.555,24.485,24.485,0,0,0-4.379-.828Q-8.965-29-12.078-29h-4.38v13.819H-11.2a22.291,22.291,0,0,1,3.748.24,6.729,6.729,0,0,1,2.384.911,5.934,5.934,0,0,1,1.752,2.01,5.509,5.509,0,0,1,.681,2.68,5.471,5.471,0,0,1-.926,3.111,5.547,5.547,0,0,1-2.48,2.057,7.883,7.883,0,0,1-2.239.625,33.045,33.045,0,0,1-3.6.143h-4.575V10.413H-11.1a32.6,32.6,0,0,0,8.563-.926,17.3,17.3,0,0,0,6.13-3.163" transform="translate(16.458 29.001)"/>
      </g>
      <path id="Path_293" data-name="Path 293" class="cls-3" d="M102.977-53.6h43.887v13.625H102.977Z" transform="translate(22.454 260.178)"/>
      <path id="Path_294" data-name="Path 294" class="cls-5" d="M115.281-35.86h14.012v43.5H115.281Z" transform="translate(25.137 264.045)"/>
    </g>
  </g>
</svg>
